<?xml version="1.0" encoding="utf-8"?>
<!-- Generator: Adobe Illustrator 16.0.0, SVG Export Plug-In . SVG Version: 6.00 Build 0)  -->
<!DOCTYPE svg PUBLIC "-//W3C//DTD SVG 1.1//EN" "http://www.w3.org/Graphics/SVG/1.1/DTD/svg11.dtd">
<svg version="1.1" id="Layer_1" xmlns="http://www.w3.org/2000/svg" xmlns:xlink="http://www.w3.org/1999/xlink" x="0px" y="0px"
	 width="600px" height="600px" viewBox="0 0 600 600" enable-background="new 0 0 600 600" xml:space="preserve">
<g>
	<g>
		<circle fill="#26B7D3" cx="300" cy="301" r="300"/>
		<path fill="#5FC8D9" d="M300,551.001c-137.85,0-250-112.151-250-250C50,163.152,162.15,51,300,51c137.854,0,250,112.151,250,250
			C550,438.849,437.854,551.001,300,551.001z"/>
	</g>
	<g>
		<polygon opacity="0.3" fill="#010101" enable-background="new    " points="303.75,204.483 303.75,317.27 392.47,317.27 
			392.47,306.02 315,306.02 315,204.483 		"/>
		<path opacity="0.3" fill="#010101" enable-background="new    " d="M448.236,288.056l-11.107,1.769
			c1.074,6.756,1.621,13.667,1.621,20.55c0,71.34-58.038,129.375-129.375,129.375S180,381.715,180,310.375
			C180,239.036,238.038,181,309.375,181c44.695,0,85.427,22.692,109.082,59.892l-45.06-9.338l-2.285,11.019l62.863,13.03
			l13.027-62.864l-11.015-2.285l-8.924,43.047c-25.834-39.628-69.654-63.75-117.69-63.75c-77.542,0-140.625,63.083-140.625,140.625
			C168.75,387.916,231.833,451,309.375,451C386.916,451,450,387.916,450,310.375C450,302.904,449.406,295.395,448.236,288.056z"/>
	</g>
	<g>
		<polygon fill="#FFFFFF" points="294.375,195.108 294.375,307.895 383.095,307.895 383.095,296.645 305.625,296.645 
			305.625,195.108 		"/>
		<path fill="#FFFFFF" d="M438.861,278.681l-11.107,1.769c1.074,6.756,1.621,13.667,1.621,20.55
			c0,71.34-58.038,129.375-129.375,129.375S170.625,372.34,170.625,301c0-71.339,58.038-129.375,129.375-129.375
			c44.695,0,85.427,22.692,109.082,59.892l-45.06-9.338l-2.285,11.019l62.863,13.03l13.027-62.864l-11.015-2.285l-8.924,43.047
			c-25.834-39.628-69.654-63.75-117.69-63.75c-77.542,0-140.625,63.083-140.625,140.625c0,77.541,63.083,140.625,140.625,140.625
			c77.541,0,140.625-63.084,140.625-140.625C440.625,293.529,440.031,286.02,438.861,278.681z"/>
	</g>
</g>
</svg>
