<?xml version="1.0" encoding="utf-8"?>
<!-- Generator: Adobe Illustrator 16.0.0, SVG Export Plug-In . SVG Version: 6.00 Build 0)  -->
<!DOCTYPE svg PUBLIC "-//W3C//DTD SVG 1.1//EN" "http://www.w3.org/Graphics/SVG/1.1/DTD/svg11.dtd">
<svg version="1.1" id="Layer_1" xmlns="http://www.w3.org/2000/svg" xmlns:xlink="http://www.w3.org/1999/xlink" x="0px" y="0px"
	 width="110px" height="110px" viewBox="0 0 110 110" enable-background="new 0 0 110 110" xml:space="preserve">
<g id="Artboard">
</g>
<g>
	<circle fill="#25B7D3" cx="55" cy="55" r="55"/>
	<path fill="#5FC8D9" d="M54.917,101.315c-25.291,0-45.866-20.576-45.866-45.866S29.625,9.583,54.917,9.583
		c25.291,0,45.867,20.575,45.867,45.865C100.783,80.739,80.207,101.315,54.917,101.315z"/>
	<g>
		<g>
			<path fill="#FBC8C8" d="M37,79c0,0,3.778-10.391-2.436-17.4c-0.339-0.384-0.336-0.961,0.01-1.338
				C36.719,57.917,40.528,57.967,46,68c1.429,2.619,4.409,2.479,7,1c4.928-2.813,12.04-11.775,19.5-9.592
				c0.339,0.099,0.602,0.369,0.688,0.712c0.088,0.342-0.013,0.705-0.263,0.955L47,87L37,79z"/>
		</g>
		<g>
			<path fill="#F0F1F1" d="M87,58c0,0.552-0.448,1-1,1H24c-0.552,0-1-0.448-1-1v-2c0-0.552,0.448-1,1-1h62c0.552,0,1,0.448,1,1V58z"
				/>
		</g>
		<g>
			<path fill="#FFFFFF" d="M55,27c1.042,0,2.034,0.046,3,0.115V24c0-0.552-0.448-1-1-1h-4c-0.552,0-1,0.448-1,1v3.115
				C52.966,27.046,53.958,27,55,27z"/>
		</g>
		<g>
			<path fill="#E2E4E5" d="M27,55c0,0-1-28,28-28s28,28,28,28H27z"/>
		</g>
		<g>
			<polygon fill="#3E3E3F" points="37,79 27,87 47,87 			"/>
		</g>
		<g>
			<path fill="#FFFFFF" d="M55,27c-29,0-28,28-28,28h28V27z"/>
		</g>
		<g>
			<path fill="#FBC8C8" d="M37,79c0,0,3.778-10.391-2.436-17.4c-0.339-0.384-0.336-0.961,0.01-1.338
				C36.719,57.917,40.528,57.967,46,68c1.429,2.619,4.409,2.479,7,1c4.928-2.813,12.04-11.775,19.5-9.592
				c0.339,0.099,0.602,0.369,0.688,0.712c0.088,0.342-0.013,0.705-0.263,0.955L47,87L37,79z"/>
		</g>
		<g>
			<path fill="#F7B4B4" d="M72.925,61.075c0.25-0.25,0.351-0.612,0.263-0.955c-0.086-0.343-0.349-0.613-0.688-0.712
				C65.04,57.227,57.928,66.188,53,69c-2.591,1.479-5.571,1.619-7-1c-5.472-10.033-9.281-10.083-11.426-7.738
				c-0.345,0.377-0.349,0.955-0.01,1.338C40.778,68.609,37,79,37,79l2.727,2.182l30.975-17.884L72.925,61.075z"/>
		</g>
	</g>
</g>
</svg>
