<?xml version="1.0" encoding="utf-8"?>
<!-- Generator: Adobe Illustrator 16.0.0, SVG Export Plug-In . SVG Version: 6.00 Build 0)  -->
<!DOCTYPE svg PUBLIC "-//W3C//DTD SVG 1.1//EN" "http://www.w3.org/Graphics/SVG/1.1/DTD/svg11.dtd">
<svg version="1.1" id="Layer_1" xmlns="http://www.w3.org/2000/svg" xmlns:xlink="http://www.w3.org/1999/xlink" x="0px" y="0px"
	 width="96px" height="96px" viewBox="0 0 96 96" enable-background="new 0 0 96 96" xml:space="preserve">
<g>
	<path fill="#25B7D3" d="M48,94.871C22.113,94.871,1.129,73.886,1.129,48C1.129,22.113,22.113,1.129,48,1.129
		c25.887,0,46.871,20.984,46.871,46.871C94.871,73.886,73.887,94.871,48,94.871"/>
	<path fill="#38817B" d="M28.328,68.859l0.021,0.017l25.598,25.621C73.07,92.077,88.6,78.132,93.361,59.841L64.57,31.054
		c0.031,0.161,0.062,0.321,0.091,0.481c0.087,0.483,0.165,0.963,0.239,1.434l3.5,31.467c0.535,3.678,0.345,4.422-3.285,4.422h-5.053
		l0,0l-0.026,0.229l0.026-0.229L28.328,68.859z"/>
	
		<path fill="none" stroke="#FFFFFF" stroke-width="1.9943" stroke-linecap="round" stroke-linejoin="round" stroke-miterlimit="22.9256" d="
		M57.354,26.949c-9.473,0-9.083,0-18.555-0.001c-6.486-0.08-9.113,4.521-6.822,8.49l3.035,0.005l-5.091,25.204l-2.092,4.469
		c-0.722,1.679-0.696,3.808,1.377,3.8l36.295-0.003c3.256,0,3.427-0.667,2.948-3.967l-3.141-28.232
		C64.609,32.271,63.484,26.949,57.354,26.949z"/>
	
		<line fill="none" stroke="#FFFFFF" stroke-width="1.9943" stroke-linecap="round" stroke-linejoin="round" stroke-miterlimit="22.9256" x1="53.902" y1="35.444" x2="34.888" y2="35.443"/>
	
		<path fill="none" stroke="#FFFFFF" stroke-width="1.9997" stroke-linecap="round" stroke-linejoin="round" stroke-miterlimit="22.9256" d="
		M58.453,27.01c-2.028,0-4.788,1.664-5.752,3.722c-0.682,1.457-0.961,4.732,1.984,4.792"/>
	
		<line fill="none" stroke="#FFFFFF" stroke-width="1.9943" stroke-linecap="round" stroke-linejoin="round" stroke-miterlimit="22.9256" x1="61.915" y1="60.682" x2="30.106" y2="60.723"/>
	
		<line fill="none" stroke="#FFFFFF" stroke-width="1.9943" stroke-linecap="round" stroke-linejoin="round" stroke-miterlimit="22.9256" x1="63.561" y1="42.487" x2="33.875" y2="42.388"/>
	
		<path fill="none" stroke="#FFFFFF" stroke-width="1.9998" stroke-linecap="round" stroke-linejoin="round" stroke-miterlimit="22.9256" d="
		M54.439,35.515c0.119,0.012,0.235,0.02,0.351,0.024c3.022,0.129,4.646-1.9,4.676-4.042c-1.96-0.105-4.276-0.125-6.976-0.13"/>
	
		<line fill="none" stroke="#FFFFFF" stroke-width="1.9998" stroke-miterlimit="22.9256" x1="64.91" y1="34.593" x2="60.916" y2="69.091"/>
</g>
</svg>
