<?xml version="1.0" encoding="utf-8"?>
<!-- Generator: Adobe Illustrator 16.0.0, SVG Export Plug-In . SVG Version: 6.00 Build 0)  -->
<!DOCTYPE svg PUBLIC "-//W3C//DTD SVG 1.1//EN" "http://www.w3.org/Graphics/SVG/1.1/DTD/svg11.dtd">
<svg version="1.1" id="Layer_1" xmlns="http://www.w3.org/2000/svg" xmlns:xlink="http://www.w3.org/1999/xlink" x="0px" y="0px"
	 width="600px" height="600px" viewBox="0 0 600 600" enable-background="new 0 0 600 600" xml:space="preserve">
<g>
	<circle id="circle" fill="#26B7D3" cx="300" cy="301" r="300"/>
	<path fill="#5FC8D9" d="M303,552.482c-137.642,0-249.616-111.984-249.616-249.616C53.384,165.231,165.358,53.25,303,53.25
		c137.639,0,249.616,111.975,249.616,249.61C552.616,440.498,440.639,552.482,303,552.482z"/>
	<g id="icon">
		<path id="right" fill="#E6E6E5" d="M300,465.063h164.063c0-75-48.75-135.938-115.313-156.563c26.719-16.875,45-46.406,45-80.156
			c0-51.563-42.188-93.75-93.75-93.75"/>
		<path id="left" fill="#FFFFFF" d="M300,134.594c-51.563,0-93.75,42.188-93.75,93.75c0,33.75,18.281,63.75,45,80.156
			c-66.563,20.625-115.313,81.563-115.313,156.563H300"/>
	</g>
</g>
</svg>
