<?xml version="1.0" encoding="utf-8"?>
<!-- Generator: Adobe Illustrator 16.0.0, SVG Export Plug-In . SVG Version: 6.00 Build 0)  -->
<!DOCTYPE svg PUBLIC "-//W3C//DTD SVG 1.1//EN" "http://www.w3.org/Graphics/SVG/1.1/DTD/svg11.dtd">
<svg version="1.1" id="Layer_1" xmlns="http://www.w3.org/2000/svg" xmlns:xlink="http://www.w3.org/1999/xlink" x="0px" y="0px"
	 width="600px" height="600px" viewBox="0 0 600 600" enable-background="new 0 0 600 600" xml:space="preserve">
<circle id="circle" fill="#26B7D3" cx="300" cy="301" r="300"/>
<path fill="#5FC8D9" d="M303,552.482c-137.642,0-249.616-111.984-249.616-249.616C53.384,165.231,165.358,53.25,303,53.25
	c137.639,0,249.616,111.975,249.616,249.609C552.616,440.498,440.639,552.482,303,552.482z"/>
<g id="icons">
	<g id="exit2">
		<path fill="#0F5D68" d="M302,274.466c16.72,0,30.4-13.68,30.4-30.4v-60.8c0-16.72-13.681-30.4-30.4-30.4
			c-16.72,0-30.4,13.68-30.4,30.4v60.8C271.6,260.786,285.28,274.466,302,274.466z"/>
		<path fill="#0F5D68" d="M409.92,196.946L409.92,196.946c-4.56-4.56-9.12-6.08-16.72-6.08c-12.16,0-22.8,10.64-22.8,22.8
			c0,6.08,3.04,12.16,6.08,16.72l0,0l0,0l0,0c19.76,19.76,30.399,45.6,30.399,74.48c0,59.28-47.12,106.4-106.399,106.4
			c-59.28,0-106.4-47.12-106.4-106.4c0-28.88,12.16-56.24,31.92-74.48l0,0c4.56-4.56,7.6-10.64,7.6-16.72
			c0-12.16-10.64-22.8-22.8-22.8c-6.08,0-12.16,3.04-16.72,6.08l0,0c-27.36,27.36-44.08,65.36-44.08,107.92c0,83.6,68.4,152,152,152
			c83.6,0,152-68.4,152-152C454,262.306,437.28,224.306,409.92,196.946z"/>
	</g>
</g>
</svg>
