<?xml version="1.0" encoding="utf-8"?>
<!-- Generator: Adobe Illustrator 16.0.0, SVG Export Plug-In . SVG Version: 6.00 Build 0)  -->
<!DOCTYPE svg PUBLIC "-//W3C//DTD SVG 1.1//EN" "http://www.w3.org/Graphics/SVG/1.1/DTD/svg11.dtd">
<svg version="1.1" id="Layer_1" xmlns="http://www.w3.org/2000/svg" xmlns:xlink="http://www.w3.org/1999/xlink" x="0px" y="0px"
	 width="600px" height="600px" viewBox="0 0 600 600" enable-background="new 0 0 600 600" xml:space="preserve">
<circle id="circle" fill="#26B7D3" cx="300" cy="301" r="300"/>
<path fill="#5FC8D9" d="M303,552.482c-137.642,0-249.616-111.984-249.616-249.616C53.384,165.231,165.358,53.25,303,53.25
	c137.639,0,249.616,111.975,249.616,249.609C552.616,440.498,440.639,552.482,303,552.482z"/>
<g opacity="0.5">
	<path d="M298,201.695c-10.013,0-18.207-2.971-24.588-8.916c-6.381-5.941-9.572-13.232-9.572-21.866
		c0-8.883,3.191-16.142,9.572-21.772c6.382-5.631,14.576-8.446,24.588-8.446c10.135,0,18.361,2.815,24.682,8.446
		c6.316,5.631,9.479,12.889,9.479,21.772c0,9.009-3.162,16.394-9.479,22.148C316.361,198.818,308.135,201.695,298,201.695z
		 M327.279,424.3h-59.311V232.101h59.311V424.3z"/>
</g>
<g>
	<path fill="#FFFFFF" stroke="#000000" stroke-miterlimit="10" d="M294.347,197.695c-10.012,0-18.206-2.971-24.588-8.916
		c-6.381-5.941-9.572-13.232-9.572-21.866c0-8.883,3.191-16.142,9.572-21.772c6.382-5.631,14.576-8.446,24.588-8.446
		c10.135,0,18.362,2.815,24.682,8.446c6.316,5.631,9.479,12.889,9.479,21.772c0,9.009-3.162,16.394-9.479,22.148
		C312.709,194.818,304.482,197.695,294.347,197.695z M323.627,420.3h-59.311V228.101h59.311V420.3z"/>
</g>
</svg>
