<?xml version="1.0" encoding="utf-8"?>
<!-- Generator: Adobe Illustrator 16.0.0, SVG Export Plug-In . SVG Version: 6.00 Build 0)  -->
<!DOCTYPE svg PUBLIC "-//W3C//DTD SVG 1.1//EN" "http://www.w3.org/Graphics/SVG/1.1/DTD/svg11.dtd">
<svg version="1.1" id="Layer_1" xmlns="http://www.w3.org/2000/svg" xmlns:xlink="http://www.w3.org/1999/xlink" x="0px" y="0px"
	 width="96px" height="96px" viewBox="0 0 96 96" enable-background="new 0 0 96 96" xml:space="preserve">
<g>
	<path fill="#25B7D3" d="M48,94.871C22.114,94.871,1.129,73.887,1.129,48C1.129,22.114,22.114,1.129,48,1.129
		c25.887,0,46.871,20.985,46.871,46.871C94.871,73.887,73.887,94.871,48,94.871"/>
	<path fill="#5FC8D9" d="M48,86.482c-21.293,0-38.616-17.324-38.616-38.616C9.384,26.574,26.707,9.25,48,9.25
		c21.293,0,38.616,17.323,38.616,38.615C86.616,69.158,69.293,86.482,48,86.482z"/>
	<path opacity="0.6" fill="#36807A" d="M94.225,55.788L77.336,38.937l-0.107-0.126l4.16,7.172c0.493,0.288,0.938,0.579,1.338,0.884
		c0.403,0.309,0.77,0.637,1.096,0.995c0.339,0.369,0.625,0.759,0.869,1.178c0.244,0.418,0.447,0.871,0.615,1.369
		c0.166,0.493,0.301,1.034,0.408,1.637s0.189,1.243,0.246,1.933c0.053,0.649,0.09,1.399,0.115,2.252
		c0.023,0.813,0.033,1.711,0.035,2.701v0.5l0.002,0.75h-0.748h-0.499h-2.278h-0.434h-0.252c-0.014,0.342-0.053,0.68-0.119,1.01
		c-0.081,0.414-0.205,0.818-0.366,1.209c-0.163,0.395-0.362,0.769-0.597,1.117c-0.234,0.353-0.504,0.678-0.799,0.977l-0.354,0.354
		l-0.53,0.531l-0.09-0.09c-0.081,0.054-0.163,0.105-0.247,0.156c-0.28,0.172-0.575,0.32-0.879,0.445
		c-0.389,0.16-0.793,0.284-1.207,0.367c-0.407,0.08-0.827,0.123-1.253,0.123s-0.846-0.043-1.254-0.123
		c-0.413-0.082-0.818-0.206-1.208-0.365c-0.397-0.164-0.771-0.363-1.115-0.595l-0.003-0.003c-0.357-0.238-0.686-0.507-0.979-0.798
		L70.9,64.496l-0.354-0.354l-0.528-0.531l0.09-0.09c-0.053-0.08-0.104-0.162-0.155-0.246c-0.17-0.282-0.32-0.576-0.445-0.879
		c-0.159-0.391-0.284-0.795-0.366-1.207c-0.063-0.328-0.104-0.664-0.119-1.004H68.77h-0.434h-7.193h-0.5h-0.283h-0.467h-0.283h-0.5
		H43.414H42.98h-0.252c-0.013,0.34-0.054,0.676-0.118,1.004c-0.082,0.412-0.207,0.816-0.367,1.209
		c-0.163,0.393-0.363,0.768-0.597,1.117c-0.234,0.352-0.504,0.68-0.799,0.976v0.003l-0.002,0.002h-0.003
		c-0.296,0.295-0.624,0.564-0.976,0.799c-0.35,0.232-0.724,0.434-1.117,0.598c-0.391,0.159-0.795,0.284-1.209,0.366
		c-0.408,0.08-0.828,0.123-1.254,0.123c-0.425,0-0.845-0.043-1.253-0.123c-0.413-0.083-0.817-0.207-1.207-0.368
		c-0.191-0.078-0.379-0.168-0.562-0.265L60.76,93.111C78.012,88.242,91.221,73.744,94.225,55.788"/>
	
		<line fill="none" stroke="#FFFFFF" stroke-width="1.9998" stroke-linecap="round" stroke-linejoin="round" stroke-miterlimit="2.6131" x1="69.193" y1="59.938" x2="60.837" y2="59.938"/>
	
		<path fill="none" stroke="#FFFFFF" stroke-width="1.9998" stroke-linecap="round" stroke-linejoin="round" stroke-miterlimit="2.6131" d="
		M60.837,59.938c-0.392,0-0.721-0.326-0.721-0.722"/>
	
		<line fill="none" stroke="#FFFFFF" stroke-width="1.9998" stroke-linecap="round" stroke-linejoin="round" stroke-miterlimit="2.6131" x1="60.116" y1="59.216" x2="60.116" y2="33.206"/>
	
		<path fill="none" stroke="#FFFFFF" stroke-width="1.9998" stroke-linecap="round" stroke-linejoin="round" stroke-miterlimit="2.6131" d="
		M60.116,33.206c0-0.396,0.323-0.72,0.721-0.72"/>
	
		<line fill="none" stroke="#FFFFFF" stroke-width="1.9998" stroke-linecap="round" stroke-linejoin="round" stroke-miterlimit="2.6131" x1="60.837" y1="32.486" x2="70.55" y2="32.486"/>
	
		<path fill="none" stroke="#FFFFFF" stroke-width="1.9998" stroke-linecap="round" stroke-linejoin="round" stroke-miterlimit="2.6131" d="
		M70.55,32.486c2.663,0,4.017,2.273,5.204,4.321"/>
	
		<line fill="none" stroke="#FFFFFF" stroke-width="1.9998" stroke-linecap="round" stroke-linejoin="round" stroke-miterlimit="2.6131" x1="75.754" y1="36.808" x2="81.184" y2="46.169"/>
	
		<path fill="none" stroke="#FFFFFF" stroke-width="1.9998" stroke-linecap="round" stroke-linejoin="round" stroke-miterlimit="2.6131" d="
		M81.184,46.169c4.088,2.358,4.658,4.808,4.658,13.047c0,0.392-0.382,0.716-0.769,0.716"/>
	
		<line fill="none" stroke="#FFFFFF" stroke-width="1.9998" stroke-linecap="round" stroke-linejoin="round" stroke-miterlimit="2.6131" x1="85.073" y1="59.932" x2="81.729" y2="59.932"/>
	
		<line fill="none" stroke="#FFFFFF" stroke-width="1.9998" stroke-linecap="round" stroke-linejoin="round" stroke-miterlimit="2.6131" x1="63.998" y1="49.025" x2="68.285" y2="49.025"/>
	
		<polyline fill="none" stroke="#FFFFFF" stroke-width="1.9998" stroke-linecap="round" stroke-linejoin="round" stroke-miterlimit="2.6131" points="
		63.189,35.252 63.188,44.826 72.248,44.826 	"/>
	
		<path fill="none" stroke="#FFFFFF" stroke-width="1.9998" stroke-linecap="round" stroke-linejoin="round" stroke-miterlimit="2.6131" d="
		M72.248,44.826c1.217,0,2.736-0.598,3.391-1.222"/>
	
		<line fill="none" stroke="#FFFFFF" stroke-width="1.9998" stroke-linecap="round" stroke-linejoin="round" stroke-miterlimit="2.6131" x1="75.639" y1="43.604" x2="72.293" y2="37.709"/>
	
		<path fill="none" stroke="#FFFFFF" stroke-width="1.9998" stroke-linecap="round" stroke-linejoin="round" stroke-miterlimit="2.6131" d="
		M72.166,37.526c-0.764-1.014-1.786-2.274-3.416-2.274"/>
	
		<line fill="none" stroke="#FFFFFF" stroke-width="1.9998" stroke-linecap="round" stroke-linejoin="round" stroke-miterlimit="2.6131" x1="68.773" y1="35.255" x2="63.314" y2="35.252"/>
	
		<polyline fill="none" stroke="#FFFFFF" stroke-width="1.9998" stroke-linecap="round" stroke-linejoin="round" stroke-miterlimit="2.6131" points="
		60.084,50.932 25.171,50.932 25.171,30.374 	"/>
	
		<path fill="none" stroke="#FFFFFF" stroke-width="1.9998" stroke-linecap="round" stroke-linejoin="round" stroke-miterlimit="2.6131" d="
		M25.171,30.374c0-0.278,0.227-0.505,0.504-0.505"/>
	
		<line fill="none" stroke="#FFFFFF" stroke-width="1.9998" stroke-linecap="round" stroke-linejoin="round" stroke-miterlimit="2.6131" x1="25.675" y1="29.869" x2="59.58" y2="29.869"/>
	
		<path fill="none" stroke="#FFFFFF" stroke-width="1.9998" stroke-linecap="round" stroke-linejoin="round" stroke-miterlimit="2.6131" d="
		M59.58,29.869c0.277,0,0.504,0.227,0.504,0.505"/>
	
		<line fill="none" stroke="#FFFFFF" stroke-width="1.9998" stroke-linecap="round" stroke-linejoin="round" stroke-miterlimit="2.6131" x1="60.084" y1="30.374" x2="60.084" y2="50.932"/>
	
		<polyline fill="none" stroke="#FFFFFF" stroke-width="1.9998" stroke-linecap="round" stroke-linejoin="round" stroke-miterlimit="2.6131" points="
		29.973,59.938 25.17,59.938 25.17,50.934 60.085,50.934 60.085,59.938 42.648,59.938 	"/>
	
		<line fill="none" stroke="#FFFFFF" stroke-width="1.9998" stroke-linecap="round" stroke-linejoin="round" stroke-miterlimit="2.6131" x1="43.997" y1="55.436" x2="57.229" y2="55.436"/>
	
		<path fill="none" stroke="#FFFFFF" stroke-width="1.9998" stroke-linecap="round" stroke-linejoin="round" stroke-miterlimit="2.6131" d="
		M36.263,53.741c3.421,0,6.195,2.772,6.195,6.194s-2.774,6.194-6.195,6.194c-3.422,0-6.195-2.772-6.195-6.194
		S32.841,53.741,36.263,53.741"/>
	
		<path fill="none" stroke="#FFFFFF" stroke-width="1.9998" stroke-linecap="round" stroke-linejoin="round" stroke-miterlimit="2.6131" d="
		M36.263,57.073c1.582,0,2.863,1.282,2.863,2.864c0,1.58-1.281,2.86-2.863,2.86c-1.581,0-2.863-1.28-2.863-2.86
		C33.399,58.355,34.682,57.073,36.263,57.073"/>
	
		<path fill="none" stroke="#FFFFFF" stroke-width="1.9998" stroke-linecap="round" stroke-linejoin="round" stroke-miterlimit="2.6131" d="
		M75.438,53.741c3.422,0,6.195,2.772,6.195,6.194s-2.773,6.194-6.195,6.194s-6.193-2.772-6.193-6.194S72.016,53.741,75.438,53.741"
		/>
	
		<path fill="none" stroke="#FFFFFF" stroke-width="1.9998" stroke-linecap="round" stroke-linejoin="round" stroke-miterlimit="2.6131" d="
		M75.438,57.359c1.422,0,2.576,1.154,2.576,2.576c0,1.424-1.154,2.575-2.576,2.575s-2.576-1.151-2.576-2.575
		C72.861,58.516,74.016,57.359,75.438,57.359"/>
	
		<line fill="none" stroke="#FFFFFF" stroke-width="1.9998" stroke-linecap="round" stroke-linejoin="round" stroke-miterlimit="2.6131" x1="21.989" y1="30.045" x2="10.159" y2="30.045"/>
	
		<line fill="none" stroke="#FFFFFF" stroke-width="1.9998" stroke-linecap="round" stroke-linejoin="round" stroke-miterlimit="2.6131" x1="21.989" y1="34.269" x2="11.6" y2="34.269"/>
	
		<line fill="none" stroke="#FFFFFF" stroke-width="1.9998" stroke-linecap="round" stroke-linejoin="round" stroke-miterlimit="2.6131" x1="21.989" y1="38.489" x2="13.041" y2="38.489"/>
	
		<line fill="none" stroke="#FFFFFF" stroke-width="1.9998" stroke-linecap="round" stroke-linejoin="round" stroke-miterlimit="2.6131" x1="21.989" y1="42.71" x2="14.481" y2="42.71"/>
	
		<line fill="none" stroke="#FFFFFF" stroke-width="1.9998" stroke-linecap="round" stroke-linejoin="round" stroke-miterlimit="2.6131" x1="21.989" y1="46.93" x2="15.923" y2="46.93"/>
	
		<line fill="none" stroke="#FFFFFF" stroke-width="1.9998" stroke-linecap="round" stroke-linejoin="round" stroke-miterlimit="2.6131" x1="21.989" y1="51.15" x2="17.363" y2="51.15"/>
	
		<line fill="none" stroke="#FFFFFF" stroke-width="1.9998" stroke-linecap="round" stroke-linejoin="round" stroke-miterlimit="2.6131" x1="21.989" y1="55.372" x2="18.805" y2="55.372"/>
	
		<line fill="none" stroke="#FFFFFF" stroke-width="1.9998" stroke-linecap="round" stroke-linejoin="round" stroke-miterlimit="2.6131" x1="21.989" y1="59.592" x2="20.246" y2="59.592"/>
	
		<line fill="none" stroke="#FFFFFF" stroke-width="1.9998" stroke-linecap="round" stroke-linejoin="round" stroke-miterlimit="2.6131" x1="27.247" y1="55.436" x2="29.171" y2="55.436"/>
</g>
</svg>
